<svg width="124" height="69" viewBox="0 0 124 69" fill="none" xmlns="http://www.w3.org/2000/svg">
<path d="M78.7947 34.7353C80.0779 34.7353 81.1223 35.7792 81.1223 37.0623C81.1223 38.3455 80.0784 39.3894 78.7947 39.3894C77.5116 39.3894 76.4682 38.3455 76.4682 37.0623C76.4682 35.7792 77.5116 34.7353 78.7947 34.7353ZM78.7947 38.2899C79.4712 38.2899 80.0223 37.7394 80.0223 37.0629C80.0223 36.3864 79.4718 35.8358 78.7947 35.8358C78.1182 35.8358 77.5682 36.3864 77.5682 37.0629C77.5682 37.7394 78.1182 38.2899 78.7947 38.2899Z" fill="white"/>
<path d="M51.566 32.5908C53.8474 32.5908 55.7333 34.3052 56.0116 36.5129H74.347C74.6198 34.2991 76.5085 32.5782 78.7943 32.5782C81.0856 32.5782 82.9776 34.3063 83.2443 36.5261H85.5862C87.5019 36.5261 87.5728 34.6247 87.575 34.4097V27.8746C87.5734 27.6579 87.5019 25.7565 85.5862 25.7565H78.7948C78.7299 25.7565 78.6661 25.7411 78.6056 25.7186C78.5891 25.7125 78.5737 25.7059 78.5583 25.6982C78.5088 25.6746 78.4632 25.6443 78.4225 25.6064C78.4164 25.6009 78.4093 25.597 78.4032 25.591C78.3658 25.553 78.3328 25.5096 78.307 25.4595C76.6476 22.2613 73.2459 17.1875 71.179 17.1875H49.7895C49.4853 17.1875 49.2395 16.9411 49.2395 16.6375C49.2395 16.3339 49.4853 16.0875 49.7895 16.0875H71.179C74.347 16.0875 78.2173 22.9554 79.127 24.656H85.5862C88.0293 24.656 88.675 26.7592 88.675 27.8718V34.4091V34.4108C88.6745 35.5234 88.0282 37.6255 85.5862 37.6255H83.241C82.9627 39.8332 81.0773 41.5476 78.7948 41.5476C76.5085 41.5476 74.6198 39.8266 74.3475 37.6129H56.016C55.7498 39.8332 53.8573 41.5613 51.5665 41.5613C49.0932 41.5613 47.0813 39.5494 47.0813 37.0761C47.0807 34.6027 49.0926 32.5908 51.566 32.5908ZM78.7948 40.4475C80.6615 40.4475 82.1801 38.929 82.1801 37.0629C82.1801 35.1967 80.6615 33.6782 78.7948 33.6782C76.9281 33.6782 75.4101 35.1967 75.4101 37.0629C75.4101 38.929 76.9281 40.4475 78.7948 40.4475ZM51.566 40.4608C53.4327 40.4608 54.9507 38.9417 54.9507 37.0755C54.9507 35.2094 53.4321 33.6908 51.566 33.6908C49.6998 33.6908 48.1807 35.2094 48.1807 37.0755C48.1807 38.9417 49.6998 40.4608 51.566 40.4608Z" fill="white"/>
<path d="M51.5661 34.7484C52.8492 34.7484 53.8926 35.7923 53.8926 37.0755C53.8926 38.3586 52.8492 39.4025 51.5661 39.4025C50.2829 39.4025 49.239 38.3586 49.239 37.0755C49.239 35.7923 50.2829 34.7484 51.5661 34.7484ZM51.5661 38.3031C52.242 38.3031 52.7926 37.7525 52.7926 37.076C52.7926 36.3995 52.242 35.849 51.5661 35.849C50.8896 35.849 50.339 36.3995 50.339 37.076C50.339 37.7525 50.8896 38.3031 51.5661 38.3031Z" fill="white"/>
<path d="M39.2871 25.3709H64.7224C64.9589 24.6064 65.664 24.0465 66.505 24.0465C67.5384 24.0465 68.3794 24.8875 68.3794 25.9209C68.3794 26.9544 67.5384 27.7948 66.505 27.7948C65.664 27.7948 64.9589 27.2343 64.7224 26.4709H39.2871C39.0501 27.2349 38.345 27.7948 37.5046 27.7948C36.4711 27.7948 35.6302 26.9544 35.6302 25.9209C35.6302 24.8875 36.4711 24.0465 37.5046 24.0465C38.345 24.0465 39.0501 24.6064 39.2871 25.3709ZM66.505 26.6948C66.9318 26.6948 67.2794 26.3477 67.2794 25.9209C67.2794 25.4941 66.9323 25.1465 66.505 25.1465C66.0776 25.1465 65.7306 25.4941 65.7306 25.9209C65.7306 26.3477 66.0782 26.6948 66.505 26.6948ZM37.5046 25.1465C37.0778 25.1465 36.7302 25.4941 36.7302 25.9209C36.7302 26.3477 37.0778 26.6948 37.5046 26.6948C37.9314 26.6948 38.279 26.3477 38.279 25.9209C38.279 25.4941 37.9314 25.1465 37.5046 25.1465Z" fill="#EC2E76"/>
<path d="M59.2347 20.1333C59.4712 19.3688 60.1763 18.8083 61.0173 18.8083C62.0507 18.8083 62.8911 19.6493 62.8911 20.6827C62.8911 21.7162 62.0507 22.5571 61.0173 22.5571C60.1769 22.5571 59.4712 21.9967 59.2347 21.2333H44.1059C44.0349 21.2333 43.9645 21.2184 43.898 21.1915C43.8589 21.1755 43.8276 21.148 43.7935 21.1238C43.7709 21.1079 43.7445 21.0991 43.7236 21.0787L39.4265 16.9235C38.5107 16.8003 37.8001 16.0226 37.8001 15.0744C37.8001 14.0409 38.6411 13.2 39.6745 13.2C40.708 13.2 41.5484 14.0409 41.5484 15.0744C41.5484 15.7256 41.2145 16.2987 40.7096 16.6347L44.3281 20.1333H59.2347ZM61.0173 21.4571C61.4441 21.4571 61.7911 21.1095 61.7911 20.6827C61.7911 20.2559 61.4441 19.9083 61.0173 19.9083C60.5905 19.9083 60.2429 20.2559 60.2429 20.6827C60.2429 21.1095 60.5905 21.4571 61.0173 21.4571ZM39.6745 14.3C39.2477 14.3 38.9001 14.6476 38.9001 15.0744C38.9001 15.5012 39.2477 15.8488 39.6745 15.8488C40.1013 15.8488 40.4484 15.5012 40.4484 15.0744C40.4484 14.6476 40.1019 14.3 39.6745 14.3Z" fill="#4E0BB4"/>
<path d="M37.1995 31.2658C38.0404 31.2658 38.7455 31.8268 38.9815 32.5908H42.3315L43.9161 30.7791C43.9205 30.7741 43.9265 30.7725 43.9304 30.7681C43.9584 30.7378 43.9925 30.7169 44.0272 30.6938C44.053 30.6762 44.0761 30.6548 44.1042 30.6416C44.1317 30.6295 44.1625 30.6262 44.1922 30.6185C44.2329 30.6075 44.2725 30.5954 44.3143 30.5937C44.3198 30.5937 44.3247 30.5904 44.3302 30.5904H63.4317C63.4372 30.5904 63.4422 30.5937 63.4477 30.5937C63.4911 30.5948 63.5318 30.6075 63.5742 30.6196C63.6022 30.6273 63.6314 30.63 63.6567 30.6416C63.6864 30.6548 63.7111 30.6773 63.7386 30.6971C63.7711 30.7191 63.8041 30.7389 63.8305 30.7675C63.8349 30.7725 63.8409 30.7741 63.8448 30.7791L65.4293 32.5908H68.7788C69.0153 31.8263 69.7204 31.2658 70.5614 31.2658C71.5948 31.2658 72.4358 32.1068 72.4358 33.1408C72.4358 34.1742 71.5948 35.0152 70.5614 35.0152C69.7204 35.0152 69.0153 34.4547 68.7788 33.6908H65.1796C65.1015 33.6908 65.0284 33.6737 64.9613 33.6446C64.9464 33.638 64.9349 33.6248 64.9206 33.6171C64.8689 33.5885 64.8199 33.556 64.7798 33.5131C64.7759 33.5087 64.7699 33.5071 64.766 33.5027L63.1815 31.691H44.5799L42.9954 33.5027C42.9915 33.5071 42.9855 33.5087 42.9816 33.5131C42.9415 33.5566 42.8925 33.5896 42.8403 33.6176C42.826 33.6253 42.8144 33.638 42.8001 33.6446C42.733 33.6737 42.6593 33.6908 42.5818 33.6908H38.982C38.745 34.4553 38.0404 35.0152 37.2 35.0152C36.1666 35.0152 35.3256 34.1742 35.3256 33.1408C35.3251 32.1068 36.166 31.2658 37.1995 31.2658ZM70.5625 33.9152C70.9893 33.9152 71.3369 33.5676 71.3369 33.1408C71.3369 32.7134 70.9893 32.3658 70.5625 32.3658C70.1357 32.3658 69.7881 32.7134 69.7881 33.1408C69.7881 33.5676 70.1357 33.9152 70.5625 33.9152ZM37.1995 33.9152C37.6263 33.9152 37.9733 33.5676 37.9733 33.1408C37.9733 32.7134 37.6263 32.3658 37.1995 32.3658C36.7727 32.3658 36.4251 32.7134 36.4251 33.1408C36.4251 33.5676 36.7727 33.9152 37.1995 33.9152Z" fill="#F8D926"/>
<path d="M11.0234 51.8076L10.1533 54.4443H3.11328V57.0898H9.26562C10.4375 57.0898 11.0234 57.6729 11.0234 58.8389V63.2334C11.0234 64.4053 10.4375 64.9912 9.26562 64.9912H0.476562V62.3633L8.38672 62.3545V59.7178H2.23438C1.0625 59.7178 0.476562 59.1348 0.476562 57.9688V53.5742C0.476562 52.3965 1.0625 51.8076 2.23438 51.8076H11.0234ZM12.7812 65V51.8164H15.418V55.332H21.5703C22.7422 55.332 23.3281 55.918 23.3281 57.0898V65H20.6914V57.9688H15.418V65H12.7812ZM25.0859 65V55.332H27.7227V65H25.0859ZM25.0859 51.8164V54.4531H26.8438L27.7227 51.8164H25.0859ZM29.4805 57.0898C29.4805 55.918 30.0664 55.332 31.2383 55.332H38.2695C39.4414 55.332 40.0273 55.918 40.0273 57.0898V63.2422C40.0273 64.4141 39.4414 65 38.2695 65H32.9961L33.875 62.3633H37.3906V57.9688H32.1172V68.5156H29.4805V57.0898ZM58.4844 55.3232L57.6143 57.96H50.5742V58.8477H56.7266C57.8984 58.8477 58.4844 59.4307 58.4844 60.5967V63.2334C58.4844 64.4053 57.8984 64.9912 56.7266 64.9912H47.9375V62.3633L55.8477 62.3545V61.4756H49.6953C48.5234 61.4756 47.9375 60.8926 47.9375 59.7266V57.0898C47.9375 55.9121 48.5234 55.3232 49.6953 55.3232H58.4844ZM66.4033 57.9688H62.8789V65H60.2422V57.0898C60.2422 55.918 60.8281 55.332 62 55.332H73.4258C74.5977 55.332 75.1836 55.918 75.1836 57.0898V65H72.5469L72.5381 57.9688H69.04V65H66.4033V57.9688ZM78.708 65C77.5303 65 76.9414 64.4141 76.9414 63.2422V57.0898C76.9414 55.918 77.5273 55.332 78.6992 55.332H85.7305C86.9023 55.332 87.4883 55.918 87.4883 57.0898V65H84.8516L84.8428 57.9688H79.5781V62.3633H83.9727L83.0938 65H78.708ZM89.2461 65V57.0898C89.2461 55.918 89.832 55.332 91.0039 55.332H96.2686L95.3896 57.9688H91.8828V65H89.2461ZM99.793 53.5742V55.332H101.551L100.672 57.96H99.793V62.3633H101.551V65H98.9141C97.7422 65 97.1562 64.4141 97.1562 63.2422V53.5742H99.793ZM112.098 55.332C113.27 55.332 113.855 55.918 113.855 57.0898V59.7266C113.855 60.8984 113.27 61.4844 112.098 61.4844H106.824V58.8477H111.219V57.9688H105.945V62.3633H112.089L111.228 65H105.066C103.895 65 103.309 64.4141 103.309 63.2422V57.0898C103.309 55.918 103.895 55.332 105.066 55.332H112.098ZM115.613 65V57.0898C115.613 55.918 116.199 55.332 117.371 55.332H122.636L121.757 57.9688H118.25V65H115.613Z" fill="white"/>
</svg>
